HIERARCHY
ROOT hip
{
  OFFSET 0 0 0
  CHANNELS 6 Xposition Yposition Zposition Zrotation Yrotation Xrotation
  JOINT abdomen
  {
    OFFSET 0 20.6881 -0.73152
    CHANNELS 3 Zrotation Xrotation Yrotation
    JOINT chest
    {
      OFFSET 0 11.7043 -0.48768
      CHANNELS 3 Zrotation Xrotation Yrotation
      JOINT neck
      {
        OFFSET 0 22.1894 -2.19456
        CHANNELS 3 Zrotation Xrotation Yrotation
        JOINT head
        {
          OFFSET -0.24384 7.07133 1.2192
          CHANNELS 3 Zrotation Xrotation Yrotation
          JOINT leftEye
          {
            OFFSET 4.14528 8.04674 8.04672
            CHANNELS 3 Zrotation Xrotation Yrotation
            End Site
            {
              OFFSET 1 0 0
            }
          }
          JOINT rightEye
          {
            OFFSET -3.6576 8.04674 8.04672
            CHANNELS 3 Zrotation Xrotation Yrotation
            End Site
            {
              OFFSET 1 0 0
            }
          }
        }
      }
      JOINT rCollar
      {
        OFFSET -2.68224 19.2634 -4.8768
        CHANNELS 3 Zrotation Xrotation Yrotation
        JOINT rShldr
        {
          OFFSET -8.77824 -1.95073 1.46304
          CHANNELS 3 Zrotation Xrotation Yrotation
          JOINT rForeArm
          {
            OFFSET -28.1742 -1.7115 0.48768
            CHANNELS 3 Zrotation Xrotation Yrotation
            JOINT rHand
            {
              OFFSET -22.5879 0.773209 7.07136
              CHANNELS 3 Zrotation Xrotation Yrotation
              JOINT rThumb1
              {
                OFFSET -1.2192 -0.487915 3.41376
                CHANNELS 3 Zrotation Xrotation Yrotation
                JOINT rThumb2
                {
                  OFFSET -3.37035 -0.52449 3.41376
                  CHANNELS 3 Zrotation Xrotation Yrotation
                  End Site
                  {
                    OFFSET -1.78271 -1.18214 1.43049
                  }
                }
              }
              JOINT rIndex1
              {
                OFFSET -7.75947 0.938293 5.60832
                CHANNELS 3 Zrotation Xrotation Yrotation
                JOINT rIndex2
                {
                  OFFSET -2.54057 -0.884171 1.56538
                  CHANNELS 3 Zrotation Xrotation Yrotation
                  End Site
                  {
                    OFFSET -1.62519 -0.234802 1.16502
                  }
                }
              }
              JOINT rMid1
              {
                OFFSET -8.24714 1.18213 3.41376
                CHANNELS 3 Zrotation Xrotation Yrotation
                JOINT rMid2
                {
                  OFFSET -3.10165 -0.590103 1.0647
                  CHANNELS 3 Zrotation Xrotation Yrotation
                  End Site
                  {
                    OFFSET -2.48547 -0.328903 0.83742
                  }
                }
              }
              JOINT rRing1
              {
                OFFSET -8.82822 0.546677 1.51678
                CHANNELS 3 Zrotation Xrotation Yrotation
                JOINT rRing2
                {
                  OFFSET -2.60934 -0.819778 -0.0198488
                  CHANNELS 3 Zrotation Xrotation Yrotation
                  End Site
                  {
                    OFFSET -2.33842 -0.294052 0.168128
                  }
                }
              }
              JOINT rPinky1
              {
                OFFSET -8.27202 -0.0477905 -0.4584
                CHANNELS 3 Zrotation Xrotation Yrotation
                JOINT rPinky2
                {
                  OFFSET -1.82734 -0.647385 -0.700984
                  CHANNELS 3 Zrotation Xrotation Yrotation
                  End Site
                  {
                    OFFSET -1.69225 -0.51767 -0.607171
                  }
                }
              }
            }
          }
        }
      }
      JOINT lCollar
      {
        OFFSET 2.68224 19.2634 -4.8768
        CHANNELS 3 Zrotation Xrotation Yrotation
        JOINT lShldr
        {
          OFFSET 8.77824 -1.95073 1.46304
          CHANNELS 3 Zrotation Xrotation Yrotation
          JOINT lForeArm
          {
            OFFSET 28.1742 -1.7115 0.48768
            CHANNELS 3 Zrotation Xrotation Yrotation
            JOINT lHand
            {
              OFFSET 22.5879 0.773209 7.07136
              CHANNELS 3 Zrotation Xrotation Yrotation
              JOINT lThumb1
              {
                OFFSET 1.2192 -0.487915 3.41376
                CHANNELS 3 Zrotation Xrotation Yrotation
                JOINT lThumb2
                {
                  OFFSET 3.37035 -0.52449 3.41376
                  CHANNELS 3 Zrotation Xrotation Yrotation
                  End Site
                  {
                    OFFSET 1.78271 -1.18214 1.43049
                  }
                }
              }
              JOINT lIndex1
              {
                OFFSET 7.75947 0.938293 5.60832
                CHANNELS 3 Zrotation Xrotation Yrotation
                JOINT lIndex2
                {
                  OFFSET 2.54057 -0.884171 1.56538
                  CHANNELS 3 Zrotation Xrotation Yrotation
                  End Site
                  {
                    OFFSET 1.62519 -0.234802 1.16502
                  }
                }
              }
              JOINT lMid1
              {
                OFFSET 8.24714 1.18213 3.41376
                CHANNELS 3 Zrotation Xrotation Yrotation
                JOINT lMid2
                {
                  OFFSET 3.10165 -0.590103 1.0647
                  CHANNELS 3 Zrotation Xrotation Yrotation
                  End Site
                  {
                    OFFSET 2.48547 -0.328903 0.83742
                  }
                }
              }
              JOINT lRing1
              {
                OFFSET 8.82822 0.546677 1.51678
                CHANNELS 3 Zrotation Xrotation Yrotation
                JOINT lRing2
                {
                  OFFSET 2.60934 -0.819778 -0.0198488
                  CHANNELS 3 Zrotation Xrotation Yrotation
                  End Site
                  {
                    OFFSET 2.33842 -0.294052 0.168128
                  }
                }
              }
              JOINT lPinky1
              {
                OFFSET 8.27202 -0.0477905 -0.4584
                CHANNELS 3 Zrotation Xrotation Yrotation
                JOINT lPinky2
                {
                  OFFSET 1.82734 -0.647385 -0.700984
                  CHANNELS 3 Zrotation Xrotation Yrotation
                  End Site
                  {
                    OFFSET 1.69225 -0.51767 -0.607171
                  }
                }
              }
            }
          }
        }
      }
    }
  }
  JOINT rButtock
  {
    OFFSET -8.77824 4.35084 1.2192
    CHANNELS 3 Zrotation Xrotation Yrotation
    JOINT rThigh
    {
      OFFSET 0 -1.70687 -2.19456
      CHANNELS 3 Zrotation Xrotation Yrotation
      JOINT rShin
      {
        OFFSET 0 -36.8199 0.73152
        CHANNELS 3 Zrotation Xrotation Yrotation
        JOINT rFoot
        {
          OFFSET 0.73152 -45.1104 -5.12064
          CHANNELS 3 Zrotation Xrotation Yrotation
          End Site
          {
            OFFSET -1.1221 -3.69964 12.103
          }
        }
      }
    }
  }
  JOINT lButtock
  {
    OFFSET 8.77824 4.35084 1.2192
    CHANNELS 3 Zrotation Xrotation Yrotation
    JOINT lThigh
    {
      OFFSET 0 -1.70687 -2.19456
      CHANNELS 3 Zrotation Xrotation Yrotation
      JOINT lShin
      {
        OFFSET 0 -36.8199 0.73152
        CHANNELS 3 Zrotation Xrotation Yrotation
        JOINT lFoot
        {
          OFFSET -0.73152 -45.1104 -5.12064
          CHANNELS 3 Zrotation Xrotation Yrotation
          End Site
          {
            OFFSET 1.1221 -3.69964 12.103
          }
        }
      }
    }
  }
}
MOTION
Frames:	6
Frame Time:	0.00833333
-15.8417 79.0587 3.74463 122.186 86.0927 190.53 -0.703143 49.4878 -2.71919 0.273397 -1.01611 -0.15742 2.73628 -3.87124 0.190735 -3.86588 -33.5752 -1.12481 -0.0 0.0 0.0 -0.0 0.0 0.0 -1.03762e-13 2.30964e-12 1.55545e-14 96.0883 -12.4661 120.388 -13.3069 -6.40848 24.1695 -163.934 -7.32426 -178.965 -6.99568e-11 -4.34091e-10 1.08751e-10 -1.08871e-10 -7.58396e-10 1.78974e-10 -6.99476e-11 -4.34096e-10 1.08737e-10 7.73091 5.47488 0.417314 -6.9952e-11 -4.34098e-10 1.08746e-10 2.90554 0.965183 0.102902 -6.99493e-11 -4.34099e-10 1.08743e-10 10.2786 0.731801 0.0259123 -6.99631e-11 -4.34098e-10 1.08748e-10 2.22167 -0.733487 -0.20892 -1.03939e-13 2.30964e-12 1.53418e-14 -75.276 -29.547 -107.451 14.5122 -7.37522 -26.5904 162.558 31.9764 -174.967 3.17851e-11 -1.20354e-10 3.85314e-10 9.32142e-11 -1.80208e-10 6.18709e-10 3.17794e-11 -1.20356e-10 3.85321e-10 -7.73091 5.47488 -0.417314 3.17834e-11 -1.20356e-10 3.85315e-10 -2.90554 0.965183 -0.102902 3.17783e-11 -1.20355e-10 3.85315e-10 -10.2786 0.731801 -0.0259123 3.17932e-11 -1.20354e-10 3.85311e-10 -2.22167 -0.733487 0.20892 -2.03217e-16 0.0 -3.88251e-19 -138.795 -73.0308 -147.15 -0.21414 36.5805 0.741997 0.223787 1.45719 11.2753 2.03217e-16 0.0 3.88251e-19 117.458 -72.315 149.877 0.223128 33.776 -0.674563 1.56984 7.22952 -23.1616
-15.8536 79.1131 3.74822 121.879 86.1068 189.788 -0.708564 49.2228 -2.71355 0.218949 -1.06536 -0.162189 2.69685 -4.05217 0.204511 -3.7019 -33.188 -1.03249 -0.0 0.0 0.0 -0.0 0.0 0.0 -1.36673e-13 2.85909e-12 1.36168e-14 96.0409 -12.524 119.832 -13.3021 -6.40482 24.1601 -163.938 -7.11372 -178.995 -8.22237e-11 -3.76848e-10 1.7342e-10 -1.29251e-10 -6.66428e-10 2.75543e-10 -8.22142e-11 -3.76855e-10 1.73407e-10 7.73091 5.47488 0.417314 -8.22185e-11 -3.76856e-10 1.73417e-10 2.90554 0.965183 0.102902 -8.22166e-11 -3.76857e-10 1.73411e-10 10.2786 0.731801 0.0259123 -8.22313e-11 -3.76857e-10 1.73417e-10 2.22167 -0.733487 -0.20892 -1.36864e-13 2.8591e-12 1.3418e-14 -74.5576 -29.8635 -106.662 14.5343 -7.3938 -26.6355 162.497 32.5489 -174.853 -1.36891e-11 -1.07193e-10 4.5342e-10 3.07508e-11 -1.55272e-10 7.35432e-10 -1.36951e-11 -1.07195e-10 4.53423e-10 -7.73091 5.47488 -0.417314 -1.36912e-11 -1.07194e-10 4.5342e-10 -2.90554 0.965183 -0.102902 -1.36957e-11 -1.07194e-10 4.53421e-10 -10.2786 0.731801 -0.0259123 -1.36812e-11 -1.07192e-10 4.53417e-10 -2.22167 -0.733487 0.20892 -2.03217e-16 0.0 -3.88251e-19 -137.907 -73.5331 -146.053 -0.210821 36.3989 0.737411 0.211124 1.44488 10.9809 2.03217e-16 0.0 3.88251e-19 116.451 -72.6406 148.462 0.221617 33.6108 -0.666201 1.49884 7.09962 -22.8845
-15.8658 79.1498 3.75294 122.055 86.04 189.567 -0.703908 48.9389 -2.69613 0.201904 -1.14227 -0.164276 2.54728 -4.19174 0.187783 -3.50273 -32.8854 -0.95303 -0.0 0.0 0.0 -0.0 0.0 0.0 -1.64128e-13 2.89759e-12 -2.41725e-15 95.7524 -12.7442 119.243 -13.3015 -6.40437 24.159 -163.939 -6.98954 -179.013 -1.48758e-10 -3.55048e-10 1.6624e-10 -2.28131e-10 -6.30586e-10 2.61941e-10 -1.48751e-10 -3.55053e-10 1.66228e-10 7.73091 5.47488 0.417314 -1.48755e-10 -3.55054e-10 1.66242e-10 2.90554 0.965183 0.102902 -1.48752e-10 -3.55055e-10 1.66232e-10 10.2786 0.731801 0.0259123 -1.48765e-10 -3.55055e-10 1.66239e-10 2.22167 -0.733487 -0.20892 -1.64319e-13 2.8976e-12 -2.58459e-15 -74.0273 -29.9843 -105.899 14.5578 -7.41353 -26.6835 162.46 32.8812 -174.787 -1.29225e-11 -9.49177e-11 4.27756e-10 2.95214e-11 -1.35441e-10 6.94411e-10 -1.29287e-11 -9.49199e-11 4.27757e-10 -7.73091 5.47488 -0.417314 -1.29245e-11 -9.49192e-11 4.27759e-10 -2.90554 0.965183 -0.102902 -1.29302e-11 -9.49192e-11 4.27759e-10 -10.2786 0.731801 -0.0259123 -1.29147e-11 -9.49176e-11 4.27755e-10 -2.22167 -0.733487 0.20892 -2.03217e-16 0.0 -3.88251e-19 -136.949 -74.0073 -144.871 -0.207738 36.227 0.732879 0.208743 1.38511 10.7211 2.03217e-16 0.0 3.88251e-19 115.38 -72.9728 147.049 0.220084 33.4463 -0.658032 1.431 6.97855 -22.5776
-15.8631 79.1751 3.74394 121.371 86.0284 188.468 -0.7021 48.6386 -2.65942 0.210311 -1.24127 -0.163088 2.31591 -4.30753 0.149353 -3.26599 -32.6261 -0.877956 -0.0 0.0 0.0 -0.0 0.0 0.0 -1.90127e-13 2.64719e-12 -2.75814e-14 95.2869 -13.0725 118.619 -13.3033 -6.40568 24.1626 -163.94 -6.92855 -179.021 -2.55974e-10 -3.47656e-10 1.15343e-10 -3.86177e-10 -6.16887e-10 1.80767e-10 -2.55969e-10 -3.47655e-10 1.15334e-10 7.73091 5.47488 0.417314 -2.55974e-10 -3.47656e-10 1.15353e-10 2.90554 0.965183 0.102902 -2.55968e-10 -3.47658e-10 1.15339e-10 10.2786 0.731801 0.0259123 -2.55979e-10 -3.47659e-10 1.15346e-10 2.22167 -0.733487 -0.20892 -1.9031e-13 2.64719e-12 -2.77025e-14 -73.5883 -29.9907 -105.132 14.5818 -7.43365 -26.7323 162.437 33.0895 -174.745 1.49501e-11 -8.06052e-11 3.38257e-10 6.32513e-11 -1.14756e-10 5.4666e-10 1.49437e-11 -8.06074e-11 3.38257e-10 -7.73091 5.47488 -0.417314 1.49484e-11 -8.06067e-11 3.38263e-10 -2.90554 0.965183 -0.102902 1.49405e-11 -8.06069e-11 3.38262e-10 -10.2786 0.731801 -0.0259123 1.49577e-11 -8.06053e-11 3.38259e-10 -2.22167 -0.733487 0.20892 -2.03217e-16 0.0 -3.88251e-19 -135.915 -74.4745 -143.604 -0.20466 36.0518 0.728131 0.211973 1.29609 10.4813 2.03217e-16 0.0 3.88251e-19 114.232 -73.3068 145.587 0.218537 33.2785 -0.649671 1.36006 6.85088 -22.2369
-15.8513 79.204 3.74406 121.341 86.0724 187.968 -0.699126 48.3195 -2.62121 0.226733 -1.33903 -0.161898 2.08658 -4.41302 0.107585 -3.05424 -32.3939 -0.818151 -0.0 0.0 0.0 -0.0 0.0 0.0 -2.04813e-13 2.20034e-12 -5.25343e-14 94.7222 -13.4593 117.958 -13.3113 -6.41186 24.1785 -163.942 -6.8344 -179.035 -3.49365e-10 -3.08598e-10 5.19522e-11 -5.23166e-10 -5.47215e-10 7.96232e-11 -3.49364e-10 -3.08592e-10 5.19441e-11 7.73091 5.47488 0.417314 -3.49369e-10 -3.08593e-10 5.19688e-11 2.90554 0.965183 0.102902 -3.49359e-10 -3.08595e-10 5.19498e-11 10.2786 0.731801 0.0259123 -3.49369e-10 -3.08597e-10 5.19581e-11 2.22167 -0.733487 -0.20892 -2.04977e-13 2.20034e-12 -5.26108e-14 -73.142 -29.9637 -104.343 14.608 -7.45568 -26.7857 162.415 33.2903 -174.705 4.42317e-11 -6.26937e-11 2.29326e-10 9.69033e-11 -8.93154e-11 3.67205e-10 4.42252e-11 -6.2696e-11 2.29326e-10 -7.73091 5.47488 -0.417314 4.42305e-11 -6.26953e-11 2.29336e-10 -2.90554 0.965183 -0.102902 4.42204e-11 -6.26956e-11 2.29334e-10 -10.2786 0.731801 -0.0259123 4.42392e-11 -6.26939e-11 2.29331e-10 -2.22167 -0.733487 0.20892 -2.03217e-16 0.0 -3.88251e-19 -134.786 -74.9341 -142.233 -0.201709 35.8827 0.72354 0.217052 1.19498 10.2483 2.03217e-16 0.0 3.88251e-19 113.012 -73.6442 144.056 0.217113 33.1169 -0.641383 1.28762 6.71644 -21.8868
-15.8496 79.2512 3.77021 123.412 86.0543 189.561 -0.691534 47.9794 -2.59887 0.233712 -1.41223 -0.163979 1.94327 -4.5217 0.0808516 -2.92992 -32.1725 -0.784462 -0.0 0.0 0.0 -0.0 0.0 0.0 -1.98328e-13 1.64949e-12 -6.79347e-14 94.1379 -13.8572 117.264 -13.3296 -6.42603 24.2149 -163.946 -6.61073 -179.067 -3.74428e-10 -1.91803e-10 7.28665e-12 -5.58872e-10 -3.43452e-10 6.11382e-12 -3.74427e-10 -1.91795e-10 7.27711e-12 7.73091 5.47488 0.417314 -3.74433e-10 -1.91795e-10 7.30573e-12 2.90554 0.965183 0.102902 -3.74422e-10 -1.91797e-10 7.28506e-12 10.2786 0.731801 0.0259123 -3.7443e-10 -1.91799e-10 7.29301e-12 2.22167 -0.733487 -0.20892 -1.9846e-13 1.64949e-12 -6.79844e-14 -72.5853 -29.981 -103.503 14.6382 -7.48116 -26.8472 162.381 33.6001 -174.642 4.92254e-11 -3.96222e-11 1.45367e-10 9.54405e-11 -5.52208e-11 2.31072e-10 4.92187e-11 -3.96245e-11 1.45367e-10 -7.73091 5.47488 -0.417314 4.92244e-11 -3.96236e-11 1.4538e-10 -2.90554 0.965183 -0.102902 4.92134e-11 -3.96239e-11 1.45377e-10 -10.2786 0.731801 -0.0259123 4.92332e-11 -3.96222e-11 1.45374e-10 -2.22167 -0.733487 0.20892 -2.03217e-16 0.0 -3.88251e-19 -133.54 -75.3848 -140.737 -0.198996 35.7289 0.719467 0.220428 1.09901 10.0087 2.03217e-16 0.0 3.88251e-19 111.721 -73.986 142.434 0.215941 32.9708 -0.633424 1.21504 6.57525 -21.5517
